#N canvas 789 388 535 506 10;
#X obj 155 78 inlet;
#X obj 155 416 outlet;
#X obj 253 418 outlet;
#X floatatom 253 372 5 0 9 0 - - -;
#X floatatom 155 372 5 0 9 0 - - -;
#X msg 155 234 0;
#X floatatom 155 121 5 0 99 0 - - -;
#X obj 155 167 route 1 2 3 4 5 6 7 8 9;
#X msg 155 143 \$1 \$1;
#X obj 290 189 unpack 0 0;
#X obj 347 238 mod 10;
#X obj 290 238 / 10;
#X floatatom 347 261 5 0 0 0 - - -;
#X floatatom 290 284 5 0 0 0 - - -;
#X obj 290 261 int;
#X obj 155 211 t b f;
#X connect 0 0 6 0;
#X connect 3 0 2 0;
#X connect 4 0 1 0;
#X connect 5 0 4 0;
#X connect 6 0 8 0;
#X connect 7 0 15 0;
#X connect 7 1 15 0;
#X connect 7 2 15 0;
#X connect 7 3 15 0;
#X connect 7 4 15 0;
#X connect 7 5 15 0;
#X connect 7 6 15 0;
#X connect 7 7 15 0;
#X connect 7 8 15 0;
#X connect 7 9 9 0;
#X connect 8 0 7 0;
#X connect 9 0 11 0;
#X connect 9 1 10 0;
#X connect 10 0 12 0;
#X connect 11 0 14 0;
#X connect 12 0 3 0;
#X connect 13 0 4 0;
#X connect 14 0 13 0;
#X connect 15 0 5 0;
#X connect 15 1 3 0;
