#N canvas 153 159 526 558 10;
#X obj 268 99 inlet;
#X obj 387 182 inlet;
#X floatatom 387 202 5 0 0 0 - - -, f 5;
#X floatatom 268 120 5 0 0 0 - - -, f 5;
#X obj 268 155 t b f;
#X msg 268 176 1000;
#X obj 268 196 /;
#X floatatom 268 217 5 0 0 0 - - -, f 5;
#X obj 268 237 vd~ \$0-Comb;
#X obj 268 298 *~;
#X obj 387 238 / 100;
#X obj 387 259 pack 0 30;
#X obj 387 281 line~;
#X obj 113 265 inlet~;
#X obj 113 314 +~;
#X obj 134 391 outlet~;
#X obj 113 426 delwrite~ \$0-Comb 1000;
#X text 111 244 audio signal;
#X text 266 77 pitch;
#X text 384 159 ring;
#X text 36 143 Basic Feedback Comb Filter;
#X text 37 164 Ben Pevsner;
#X connect 0 0 3 0;
#X connect 1 0 2 0;
#X connect 2 0 10 0;
#X connect 3 0 4 0;
#X connect 4 0 5 0;
#X connect 4 1 6 1;
#X connect 5 0 6 0;
#X connect 6 0 7 0;
#X connect 7 0 8 0;
#X connect 8 0 9 0;
#X connect 9 0 14 1;
#X connect 10 0 11 0;
#X connect 11 0 12 0;
#X connect 12 0 9 1;
#X connect 13 0 14 0;
#X connect 14 0 15 0;
#X connect 14 0 16 0;
