#N canvas 547 46 1071 905 10;
#X obj 120 353 rfft~;
#X obj 121 404 *~;
#X obj 148 404 *~;
#X obj 121 438 +~;
#X obj 122 471 sqrt~;
#X obj 171 455 tgl 15 0 empty empty empty 17 7 0 10 -262144 -1 -1 1
1;
#X obj 171 481 metro 150;
#X obj 119 309 inlet~;
#X obj 123 556 tabwrite~ \$0-magnitude;
#X obj 187 421 loadbang;
#X obj 100 100 cnv 15 200 140 empty empty empty 20 12 0 14 -233017
-66577 0;
#N canvas 0 22 591 404 (subpatch) 0;
#X array \$0-magnitude 50 float 0;
#X coords 0 50 49 0 200 140 1 0 0;
#X restore 100 100 graph;
#X connect 0 0 1 0;
#X connect 0 0 1 1;
#X connect 0 1 2 0;
#X connect 0 1 2 1;
#X connect 1 0 3 0;
#X connect 2 0 3 1;
#X connect 3 0 4 0;
#X connect 4 0 8 0;
#X connect 5 0 6 0;
#X connect 6 0 8 0;
#X connect 7 0 0 0;
#X connect 9 0 5 0;
#X coords 0 -1 1 1 200 140 1 100 100;
