#N canvas 337 83 925 828 10;
#X text 298 554 <- or click here;
#X obj 498 219 cnv 15 250 300 empty empty README 20 12 0 18 -261234
-66577 0;
#X text 510 257 The main thing is the fft;
#X text 509 273 filter to the left. It's;
#X text 510 288 controlled by changing the;
#X text 511 302 array. The array can also;
#X text 512 319 be modified by another;
#X text 512 334 audio signal \, which is why;
#X text 512 349 there is the osc at 40;
#X text 511 376 Control the window size by;
#X text 512 391 clicking the number box or;
#X text 511 408 inputting at the top.;
#X text 513 436 To play sound \, just click "on";
#X text 513 451 on the envelope (and turn on;
#X text 513 467 the volume/dsp at the bottom).;
#X obj 67 145 phasor~;
#X floatatom 67 110 5 0 0 0 - - -, f 5;
#N canvas 253 36 1404 819 _________________________midi_keys________________________
0;
#X obj 34 702 cnv 15 800 60 empty empty empty 20 12 0 14 -233017 -66577
0;
#X obj 49 457 keyup;
#X floatatom 49 495 5 0 0 0 - - -, f 5;
#X obj 49 589 sel 97 119 115 101 100 102 116 103 121 104 117 106 107
;
#X msg 49 654 bang;
#X msg 110 654 bang;
#X msg 171 654 bang;
#X msg 232 654 bang;
#X msg 293 654 bang;
#X msg 354 654 bang;
#X msg 415 654 bang;
#X msg 476 654 bang;
#X msg 537 654 bang;
#X msg 598 654 bang;
#X msg 659 654 bang;
#X msg 720 654 bang;
#X msg 781 654 bang;
#X obj 49 714 outlet;
#X obj 110 714 outlet;
#X obj 171 714 outlet;
#X obj 232 714 outlet;
#X obj 781 714 outlet;
#X obj 293 714 outlet;
#X obj 354 714 outlet;
#X obj 415 714 outlet;
#X obj 476 714 outlet;
#X obj 537 714 outlet;
#X obj 598 714 outlet;
#X obj 659 714 outlet;
#X obj 720 714 outlet;
#X text 56 738 60u;
#X text 119 738 61u;
#X text 180 738 62u;
#X text 240 738 63u;
#X text 305 738 64u;
#X text 366 738 65u;
#X text 426 738 66u;
#X text 488 738 67u;
#X text 551 738 68u;
#X text 613 738 69u;
#X text 672 738 70u;
#X text 733 738 71u;
#X obj 21 361 cnv 15 800 60 empty empty empty 20 12 0 14 -233017 -66577
0;
#X obj 824 116 cnv 15 100 150 empty empty empty 20 12 0 14 -233017
-66577 0;
#X obj 30 113 key;
#X msg 30 266 60;
#X obj 30 307 +;
#X obj 91 307 +;
#X msg 91 266 61;
#X obj 152 307 +;
#X msg 152 266 62;
#X obj 213 307 +;
#X obj 274 307 +;
#X obj 335 307 +;
#X obj 396 307 +;
#X obj 457 307 +;
#X obj 518 307 +;
#X obj 579 307 +;
#X obj 640 307 +;
#X obj 701 307 +;
#X obj 762 307 +;
#X obj 30 222 sel 97 119 115 101 100 102 116 103 121 104 117 106 107
;
#X obj 840 130 sel 122 120;
#X floatatom 864 216 5 0 0 0 - - -, f 5;
#X msg 871 169 1;
#X msg 840 169 -1;
#X obj 840 199 +;
#X obj 864 290 * 12;
#X msg 213 266 63;
#X msg 274 266 64;
#X msg 335 266 65;
#X msg 396 268 66;
#X msg 457 268 67;
#X msg 518 268 68;
#X msg 579 268 69;
#X msg 640 268 70;
#X msg 701 268 71;
#X msg 762 268 72;
#X obj 30 375 outlet;
#X obj 91 375 outlet;
#X text 39 394 60;
#X text 100 394 61;
#X obj 152 375 outlet;
#X obj 213 375 outlet;
#X text 161 394 62;
#X text 223 394 63;
#X text 286 394 64;
#X text 347 394 65;
#X text 407 394 66;
#X text 469 394 67;
#X text 532 394 68;
#X text 594 394 69;
#X text 653 394 70;
#X text 714 394 71;
#X obj 762 375 outlet;
#X text 780 394 72;
#X obj 274 375 outlet;
#X obj 335 375 outlet;
#X obj 396 375 outlet;
#X obj 457 375 outlet;
#X obj 518 375 outlet;
#X obj 579 375 outlet;
#X obj 640 375 outlet;
#X obj 701 375 outlet;
#X text 753 98 8va / 8vb is controlled by the z and x keys.;
#X text 289 439 midi 60-72 are controlled by keys a-k;
#X text 286 768 midi off 60-72 are controlled by keys a-k as well;
#X obj 40 0 cnv 15 707 57 empty empty Midikeys 260 30 1 36 -233017
-66577 0;
#X obj 108 494 s \$0-stopkey;
#X msg 108 474 bang;
#X obj 106 136 r \$0-stopkey;
#X floatatom 30 174 5 0 0 0 - - -, f 5;
#X obj 108 542 bng 15 250 50 0 empty empty empty 17 7 0 10 -262144
-1 -1;
#X msg 106 157 0;
#X obj 30 202 change;
#X connect 1 0 2 0;
#X connect 1 0 109 0;
#X connect 2 0 112 0;
#X connect 2 0 3 0;
#X connect 3 0 4 0;
#X connect 3 1 5 0;
#X connect 3 2 6 0;
#X connect 3 3 7 0;
#X connect 3 4 8 0;
#X connect 3 5 9 0;
#X connect 3 6 10 0;
#X connect 3 7 11 0;
#X connect 3 8 12 0;
#X connect 3 9 13 0;
#X connect 3 10 14 0;
#X connect 3 11 15 0;
#X connect 3 12 16 0;
#X connect 4 0 17 0;
#X connect 5 0 18 0;
#X connect 6 0 19 0;
#X connect 7 0 20 0;
#X connect 8 0 22 0;
#X connect 9 0 23 0;
#X connect 10 0 24 0;
#X connect 11 0 25 0;
#X connect 12 0 26 0;
#X connect 13 0 27 0;
#X connect 14 0 28 0;
#X connect 15 0 29 0;
#X connect 16 0 21 0;
#X connect 44 0 111 0;
#X connect 44 0 62 0;
#X connect 45 0 46 0;
#X connect 46 0 78 0;
#X connect 47 0 79 0;
#X connect 48 0 47 0;
#X connect 49 0 82 0;
#X connect 50 0 49 0;
#X connect 51 0 83 0;
#X connect 52 0 96 0;
#X connect 53 0 97 0;
#X connect 54 0 98 0;
#X connect 55 0 99 0;
#X connect 56 0 100 0;
#X connect 57 0 101 0;
#X connect 58 0 102 0;
#X connect 59 0 103 0;
#X connect 60 0 94 0;
#X connect 61 0 45 0;
#X connect 61 1 48 0;
#X connect 61 2 50 0;
#X connect 61 3 68 0;
#X connect 61 4 69 0;
#X connect 61 5 70 0;
#X connect 61 6 71 0;
#X connect 61 7 72 0;
#X connect 61 8 73 0;
#X connect 61 9 74 0;
#X connect 61 10 75 0;
#X connect 61 11 76 0;
#X connect 61 12 77 0;
#X connect 62 0 65 0;
#X connect 62 1 64 0;
#X connect 63 0 66 1;
#X connect 63 0 67 0;
#X connect 64 0 66 0;
#X connect 65 0 66 0;
#X connect 66 0 63 0;
#X connect 67 0 53 1;
#X connect 67 0 52 1;
#X connect 67 0 51 1;
#X connect 67 0 49 1;
#X connect 67 0 47 1;
#X connect 67 0 46 1;
#X connect 67 0 60 1;
#X connect 67 0 59 1;
#X connect 67 0 58 1;
#X connect 67 0 57 1;
#X connect 67 0 56 1;
#X connect 67 0 55 1;
#X connect 67 0 54 1;
#X connect 68 0 51 0;
#X connect 69 0 52 0;
#X connect 70 0 53 0;
#X connect 71 0 54 0;
#X connect 72 0 55 0;
#X connect 73 0 56 0;
#X connect 74 0 57 0;
#X connect 75 0 58 0;
#X connect 76 0 59 0;
#X connect 77 0 60 0;
#X connect 109 0 108 0;
#X connect 110 0 113 0;
#X connect 111 0 114 0;
#X connect 113 0 111 0;
#X connect 114 0 61 0;
#X coords 0 819 1 818 707 60 0;
#X restore 67 58 pd _________________________midi_keys________________________
;
#X obj 67 127 mtof;
#X obj 67 163 BPD_adsr;
#X obj 422 589 BPD_scope;
#X obj 76 401 BPD_fft;
#X obj 73 631 BPD_out2;
#X floatatom 316 286 5 0 0 0 - - -, f 5;
#X msg 316 265 200;
#X obj 314 241 loadbang;
#X obj 316 310 BPD_osc-triangle;
#X connect 15 0 19 0;
#X connect 16 0 18 0;
#X connect 17 0 16 0;
#X connect 17 0 19 1;
#X connect 17 1 19 2;
#X connect 17 2 16 0;
#X connect 17 2 19 1;
#X connect 17 3 19 2;
#X connect 17 4 16 0;
#X connect 17 4 19 1;
#X connect 17 5 19 2;
#X connect 17 6 16 0;
#X connect 17 6 19 1;
#X connect 17 7 19 2;
#X connect 17 8 16 0;
#X connect 17 8 19 1;
#X connect 17 9 19 2;
#X connect 17 10 16 0;
#X connect 17 10 19 1;
#X connect 17 11 19 2;
#X connect 17 12 16 0;
#X connect 17 12 19 1;
#X connect 17 13 19 2;
#X connect 17 14 16 0;
#X connect 17 14 19 1;
#X connect 17 15 19 2;
#X connect 17 16 16 0;
#X connect 17 16 19 1;
#X connect 17 17 19 2;
#X connect 17 18 16 0;
#X connect 17 18 19 1;
#X connect 17 19 19 2;
#X connect 17 20 16 0;
#X connect 17 20 19 1;
#X connect 17 21 19 2;
#X connect 17 22 16 0;
#X connect 17 22 19 1;
#X connect 17 23 19 2;
#X connect 17 24 16 0;
#X connect 17 24 19 1;
#X connect 17 25 19 2;
#X connect 18 0 15 0;
#X connect 19 0 21 0;
#X connect 21 0 20 0;
#X connect 21 0 22 0;
#X connect 21 0 22 2;
#X connect 23 0 26 0;
#X connect 24 0 23 0;
#X connect 25 0 24 0;
#X connect 26 0 21 2;
