#N canvas 311 84 674 738 10;
#X obj 108 61 bng 15 250 50 0 empty empty empty 17 7 0 10 -262144 -1
-1;
#N canvas 305 58 953 630 triangle 0;
#X obj 328 174 /;
#X obj 414 174 /;
#X obj 499 174 /;
#X obj 586 174 /;
#X obj 672 174 /;
#X obj 757 174 /;
#X msg 343 147 1;
#X obj 151 326 pack 0 0 0 0 0 0 0 0 0 0 0 0 0;
#X msg 151 43 512;
#X msg 178 157 1;
#X obj 151 373 outlet;
#X obj 151 8 inlet;
#X obj 178 130 t b b;
#X obj 151 78 t f b;
#X obj 370 174 *;
#X msg 385 147 0;
#X obj 457 174 *;
#X msg 472 147 0;
#X obj 543 174 *;
#X msg 558 147 0;
#X obj 628 174 *;
#X msg 643 147 0;
#X msg 730 147 0;
#X obj 715 174 *;
#X msg 816 147 0;
#X obj 801 174 *;
#X msg 429 147 -9;
#X msg 514 147 25;
#X msg 601 147 -49;
#X msg 687 147 81;
#X msg 772 147 -121;
#X connect 0 0 7 1;
#X connect 1 0 7 3;
#X connect 2 0 7 5;
#X connect 3 0 7 7;
#X connect 4 0 7 9;
#X connect 5 0 7 11;
#X connect 6 0 0 1;
#X connect 7 0 10 0;
#X connect 8 0 13 0;
#X connect 9 0 0 0;
#X connect 9 0 1 0;
#X connect 9 0 2 0;
#X connect 9 0 3 0;
#X connect 9 0 4 0;
#X connect 9 0 5 0;
#X connect 9 0 14 0;
#X connect 9 0 16 0;
#X connect 9 0 18 0;
#X connect 9 0 20 0;
#X connect 9 0 23 0;
#X connect 9 0 25 0;
#X connect 11 0 8 0;
#X connect 12 0 9 0;
#X connect 12 1 6 0;
#X connect 12 1 15 0;
#X connect 12 1 26 0;
#X connect 12 1 17 0;
#X connect 12 1 27 0;
#X connect 12 1 19 0;
#X connect 12 1 28 0;
#X connect 12 1 21 0;
#X connect 12 1 29 0;
#X connect 12 1 22 0;
#X connect 12 1 30 0;
#X connect 12 1 24 0;
#X connect 13 0 7 0;
#X connect 13 1 12 0;
#X connect 14 0 7 2;
#X connect 15 0 14 1;
#X connect 16 0 7 4;
#X connect 17 0 16 1;
#X connect 18 0 7 6;
#X connect 19 0 18 1;
#X connect 20 0 7 8;
#X connect 21 0 20 1;
#X connect 22 0 23 1;
#X connect 23 0 7 10;
#X connect 24 0 25 1;
#X connect 25 0 7 12;
#X connect 26 0 1 1;
#X connect 27 0 2 1;
#X connect 28 0 3 1;
#X connect 29 0 4 1;
#X connect 30 0 5 1;
#X restore 108 87 pd triangle;
#N canvas 0 22 450 300 sine 0;
#X obj 73 54 inlet;
#X obj 73 142 outlet;
#X msg 73 99 512 1 0 0 0 0 0 0 0 0 0 0 0;
#X connect 0 0 2 0;
#X connect 2 0 1 0;
#X restore 204 85 pd sine;
#N canvas 0 22 914 496 sawtooth 0;
#X obj 318 164 /;
#X obj 404 164 /;
#X obj 360 164 /;
#X obj 447 164 /;
#X obj 533 164 /;
#X obj 489 164 /;
#X obj 576 164 /;
#X obj 662 164 /;
#X obj 618 164 /;
#X obj 705 164 /;
#X obj 791 164 /;
#X obj 747 164 /;
#X msg 333 137 1;
#X msg 375 137 2;
#X msg 419 137 3;
#X msg 462 137 4;
#X msg 504 137 5;
#X msg 548 137 6;
#X msg 591 137 7;
#X msg 633 137 8;
#X msg 677 137 9;
#X msg 762 137 11;
#X msg 806 137 12;
#X msg 720 137 10;
#X obj 141 316 pack 0 0 0 0 0 0 0 0 0 0 0 0 0;
#X msg 141 33 512;
#X msg 168 147 1;
#X obj 141 363 outlet;
#X obj 141 -2 inlet;
#X obj 168 120 t b b;
#X obj 141 68 t f b;
#X connect 0 0 24 1;
#X connect 1 0 24 3;
#X connect 2 0 24 2;
#X connect 3 0 24 4;
#X connect 4 0 24 6;
#X connect 5 0 24 5;
#X connect 6 0 24 7;
#X connect 7 0 24 9;
#X connect 8 0 24 8;
#X connect 9 0 24 10;
#X connect 10 0 24 12;
#X connect 11 0 24 11;
#X connect 12 0 0 1;
#X connect 13 0 2 1;
#X connect 14 0 1 1;
#X connect 15 0 3 1;
#X connect 16 0 5 1;
#X connect 17 0 4 1;
#X connect 18 0 6 1;
#X connect 19 0 8 1;
#X connect 20 0 7 1;
#X connect 21 0 11 1;
#X connect 22 0 10 1;
#X connect 23 0 9 1;
#X connect 24 0 27 0;
#X connect 25 0 30 0;
#X connect 26 0 0 0;
#X connect 26 0 2 0;
#X connect 26 0 1 0;
#X connect 26 0 3 0;
#X connect 26 0 5 0;
#X connect 26 0 4 0;
#X connect 26 0 6 0;
#X connect 26 0 8 0;
#X connect 26 0 7 0;
#X connect 26 0 9 0;
#X connect 26 0 11 0;
#X connect 26 0 10 0;
#X connect 28 0 25 0;
#X connect 29 0 26 0;
#X connect 29 1 12 0;
#X connect 29 1 13 0;
#X connect 29 1 14 0;
#X connect 29 1 15 0;
#X connect 29 1 16 0;
#X connect 29 1 17 0;
#X connect 29 1 18 0;
#X connect 29 1 19 0;
#X connect 29 1 20 0;
#X connect 29 1 23 0;
#X connect 29 1 21 0;
#X connect 29 1 22 0;
#X connect 30 0 24 0;
#X connect 30 1 29 0;
#X restore 268 85 pd sawtooth;
#N canvas 907 322 970 544 square 0;
#X obj 338 184 /;
#X obj 424 184 /;
#X obj 509 184 /;
#X obj 596 184 /;
#X obj 682 184 /;
#X obj 767 184 /;
#X msg 353 157 1;
#X obj 161 336 pack 0 0 0 0 0 0 0 0 0 0 0 0 0;
#X msg 161 53 512;
#X msg 188 167 1;
#X obj 161 383 outlet;
#X obj 161 18 inlet;
#X obj 188 140 t b b;
#X obj 161 88 t f b;
#X obj 380 184 *;
#X msg 395 157 0;
#X obj 467 184 *;
#X msg 482 157 0;
#X obj 553 184 *;
#X msg 568 157 0;
#X obj 638 184 *;
#X msg 653 157 0;
#X msg 740 157 0;
#X obj 725 184 *;
#X msg 826 157 0;
#X obj 811 184 *;
#X msg 439 157 2;
#X msg 524 157 3;
#X msg 611 157 4;
#X msg 697 157 5;
#X msg 782 157 6;
#X connect 0 0 7 1;
#X connect 1 0 7 3;
#X connect 2 0 7 5;
#X connect 3 0 7 7;
#X connect 4 0 7 9;
#X connect 5 0 7 11;
#X connect 6 0 0 1;
#X connect 7 0 10 0;
#X connect 8 0 13 0;
#X connect 9 0 0 0;
#X connect 9 0 1 0;
#X connect 9 0 2 0;
#X connect 9 0 3 0;
#X connect 9 0 4 0;
#X connect 9 0 5 0;
#X connect 9 0 14 0;
#X connect 9 0 16 0;
#X connect 9 0 18 0;
#X connect 9 0 20 0;
#X connect 9 0 23 0;
#X connect 9 0 25 0;
#X connect 11 0 8 0;
#X connect 12 0 9 0;
#X connect 12 1 6 0;
#X connect 12 1 15 0;
#X connect 12 1 26 0;
#X connect 12 1 17 0;
#X connect 12 1 27 0;
#X connect 12 1 19 0;
#X connect 12 1 28 0;
#X connect 12 1 21 0;
#X connect 12 1 29 0;
#X connect 12 1 22 0;
#X connect 12 1 30 0;
#X connect 12 1 24 0;
#X connect 13 0 7 0;
#X connect 13 1 12 0;
#X connect 14 0 7 2;
#X connect 15 0 14 1;
#X connect 16 0 7 4;
#X connect 17 0 16 1;
#X connect 18 0 7 6;
#X connect 19 0 18 1;
#X connect 20 0 7 8;
#X connect 21 0 20 1;
#X connect 22 0 23 1;
#X connect 23 0 7 10;
#X connect 24 0 25 1;
#X connect 25 0 7 12;
#X connect 26 0 1 1;
#X connect 27 0 2 1;
#X connect 28 0 3 1;
#X connect 29 0 4 1;
#X connect 30 0 5 1;
#X restore 364 106 pd square;
#X obj 365 85 bng 15 250 50 0 empty empty empty 17 7 0 10 -262144 -1
-1;
#X obj 268 61 bng 15 250 50 0 empty empty empty 17 7 0 10 -262144 -1
-1;
#X obj 204 64 bng 15 250 50 0 empty empty empty 17 7 0 10 -262144 -1
-1;
#X obj 107 129 bpd_midisynth;
#X obj 109 241 bpd_vibrato;
#X obj 110 348 BPD_reverb;
#X obj 110 466 BPD_out1;
#X obj 331 473 bpd_scope;
#X connect 0 0 1 0;
#X connect 1 0 8 0;
#X connect 2 0 8 0;
#X connect 3 0 8 0;
#X connect 4 0 8 0;
#X connect 5 0 4 0;
#X connect 6 0 3 0;
#X connect 7 0 2 0;
#X connect 8 0 9 0;
#X connect 9 0 10 0;
#X connect 10 0 11 0;
#X connect 10 0 11 1;
#X connect 10 0 12 0;
#X connect 10 0 12 2;
