#N canvas 188 31 1074 905 10;
#X obj 43 61 tgl 15 0 empty empty empty 17 7 0 10 -262144 -1 -1 0 1
;
#X floatatom 71 120 5 0 0 0 - - -, f 5;
#X floatatom 119 139 5 0 0 0 - - -, f 5;
#X floatatom 512 67 5 0 0 0 - - -, f 5;
#X floatatom 273 40 5 0 0 0 - - -, f 5;
#X obj 512 101 sel 1 2 3 4 5 6 7 8 9 10 11 12;
#X obj 273 77 sel 1 2 3 4 5 6 7 8 9 10 11 12;
#X obj 273 228 t b f;
#X obj 272 254 +;
#X msg 512 132 1;
#X msg 526 155 2;
#X msg 541 180 3;
#X msg 556 203 4;
#X msg 571 134 5;
#X msg 585 157 6;
#X msg 600 182 7;
#X msg 615 205 8;
#X msg 630 135 9;
#X msg 644 158 10;
#X msg 659 183 11;
#X msg 674 206 12;
#X msg 273 114 0;
#X msg 287 137 12;
#X msg 302 162 24;
#X msg 317 185 36;
#X msg 332 116 48;
#X msg 346 139 60;
#X msg 361 164 72;
#X msg 376 187 84;
#X msg 391 117 96;
#X msg 405 140 108;
#X msg 420 165 120;
#X msg 435 188 132;
#X obj 272 278 sel 1 2 3 4 5 6 7 8 9 10 11 12;
#X obj 449 301 - 12;
#X obj 449 319 sel 1 2 3 4 5 6 7 8 9 10 11 12;
#X obj 626 341 - 12;
#X obj 626 359 sel 1 2 3 4 5 6 7 8 9 10 11 12;
#X obj 803 381 - 12;
#X obj 803 399 sel 1 2 3 4 5 6 7 8 9 10 11 12;
#X obj 980 421 - 12;
#X obj 272 438 sel 1 2 3 4 5 6 7 8 9 10 11 12;
#X obj 449 460 - 12;
#X obj 449 478 sel 1 2 3 4 5 6 7 8 9 10 11 12;
#X obj 626 500 - 12;
#X obj 626 518 sel 1 2 3 4 5 6 7 8 9 10 11 12;
#X obj 803 540 - 12;
#X obj 803 558 sel 1 2 3 4 5 6 7 8 9 10 11 12;
#X obj 980 580 - 12;
#X obj 272 597 sel 1 2 3 4 5 6 7 8 9 10 11 12;
#X obj 449 619 - 12;
#X obj 449 637 sel 1 2 3 4 5 6 7 8 9 10 11 12;
#X obj 626 659 - 12;
#X obj 626 677 sel 1 2 3 4 5 6 7 8 9 10 11 12;
#X obj 803 694 - 12;
#X obj 803 717 sel 1 2 3 4 5 6 7 8 9 10 11 12;
#X msg 272 299 1;
#X msg 286 318 2;
#X msg 301 337 4;
#X msg 316 356 8;
#X msg 331 375 16;
#X msg 345 394 32;
#X msg 360 302 64;
#X msg 375 321 128;
#X msg 390 340 256;
#X msg 404 359 512;
#X msg 419 378 1024;
#X msg 434 397 2048;
#X msg 449 342 0;
#X msg 463 361 3;
#X msg 478 380 5;
#X msg 493 399 9;
#X msg 508 418 18;
#X msg 522 437 36;
#X msg 537 345 72;
#X msg 626 384 0;
#X msg 640 403 0;
#X msg 655 422 7;
#X msg 670 441 14;
#X msg 685 460 21;
#X msg 699 479 42;
#X msg 714 387 84;
#X msg 729 406 146;
#X msg 803 422 0;
#X msg 817 441 0;
#X msg 832 460 0;
#X msg 847 479 15;
#X msg 862 498 30;
#X msg 876 517 54;
#X msg 891 425 95;
#X msg 906 444 170;
#X msg 552 364 136;
#X msg 272 458 0;
#X msg 286 477 0;
#X msg 301 496 0;
#X msg 316 515 0;
#X msg 331 534 31;
#X msg 345 553 62;
#X msg 360 459 118;
#X msg 375 478 181;
#X msg 449 498 0;
#X msg 463 517 0;
#X msg 478 536 0;
#X msg 493 555 0;
#X msg 508 574 0;
#X msg 522 593 63;
#X msg 537 501 126;
#X msg 552 520 249;
#X msg 626 538 0;
#X msg 640 557 0;
#X msg 655 576 0;
#X msg 670 595 0;
#X msg 685 614 0;
#X msg 699 633 0;
#X msg 714 538 127;
#X msg 729 557 254;
#X msg 803 578 0;
#X msg 817 597 0;
#X msg 832 616 0;
#X msg 847 635 0;
#X msg 862 654 0;
#X msg 876 673 0;
#X msg 891 578 0;
#X msg 906 597 255;
#X msg 272 618 0;
#X msg 286 637 0;
#X msg 301 656 0;
#X msg 316 675 0;
#X msg 330 694 0;
#X msg 345 713 0;
#X msg 360 618 0;
#X msg 375 637 0;
#X msg 567 383 272;
#X msg 581 402 528;
#X msg 744 425 292;
#X msg 758 444 584;
#X msg 921 463 340;
#X msg 935 482 676;
#X msg 390 497 341;
#X msg 404 516 682;
#X msg 581 558 686;
#X msg 758 595 878;
#X msg 935 635 990;
#X msg 404 675 1022;
#X msg 449 658 0;
#X msg 463 677 0;
#X msg 478 696 0;
#X msg 493 715 0;
#X msg 508 734 0;
#X msg 522 753 0;
#X msg 537 658 0;
#X msg 552 677 0;
#X msg 567 696 0;
#X msg 626 698 0;
#X msg 640 717 0;
#X msg 655 736 0;
#X msg 670 755 0;
#X msg 684 774 0;
#X msg 699 793 0;
#X msg 714 698 0;
#X msg 729 717 0;
#X msg 744 736 0;
#X msg 803 737 0;
#X msg 817 756 0;
#X msg 832 775 0;
#X msg 847 794 0;
#X msg 861 813 0;
#X msg 876 832 0;
#X msg 891 738 0;
#X msg 906 757 0;
#X msg 921 776 0;
#X msg 935 795 0;
#X msg 950 814 0;
#X msg 758 755 0;
#X msg 596 421 1056;
#X msg 773 463 1160;
#X msg 419 535 1364;
#X msg 596 577 1365;
#X msg 950 501 1170;
#X msg 567 539 438;
#X msg 744 576 494;
#X msg 921 616 510;
#X msg 390 656 511;
#X msg 581 715 1023;
#X msg 773 614 1754;
#X msg 950 654 1910;
#X msg 419 694 2014;
#X msg 596 734 2046;
#X msg 773 774 2047;
#X msg 611 440 2080;
#X msg 788 482 2184;
#X msg 965 520 2340;
#X msg 434 554 2724;
#X msg 611 596 2730;
#X msg 788 633 3490;
#X msg 965 673 3518;
#X msg 434 713 3822;
#X msg 611 753 4030;
#X msg 788 793 4094;
#X msg 965 833 4095;
#X obj 62 180 bng 15 250 50 0 empty empty empty 17 7 0 10 -262144 -1
-1;
#X text 472 64 Steps:;
#X text 227 38 Fill:;
#X obj 512 40 inlet;
#X obj 273 8 inlet;
#X obj 43 32 inlet;
#X obj 83 95 inlet;
#X text 2 61 Metro:;
#X text 34 94 Speed:;
#X obj 43 224 outlet;
#X obj 272 411 s \$0-rhythms;
#X obj 360 414 s \$0-rhythms;
#X obj 482 456 s \$0-rhythms;
#X obj 570 459 s \$0-rhythms;
#X obj 659 496 s \$0-rhythms;
#X obj 747 499 s \$0-rhythms;
#X obj 841 537 s \$0-rhythms;
#X obj 929 539 s \$0-rhythms;
#X obj 278 568 s \$0-rhythms;
#X obj 366 571 s \$0-rhythms;
#X obj 488 613 s \$0-rhythms;
#X obj 555 616 s \$0-rhythms;
#X obj 662 653 s \$0-rhythms;
#X obj 729 653 s \$0-rhythms;
#X obj 841 692 s \$0-rhythms;
#X obj 916 693 s \$0-rhythms;
#X obj 272 735 s \$0-rhythms;
#X obj 360 738 s \$0-rhythms;
#X obj 449 776 s \$0-rhythms;
#X obj 537 776 s \$0-rhythms;
#X obj 627 813 s \$0-rhythms;
#X obj 714 816 s \$0-rhythms;
#X obj 802 849 s \$0-rhythms;
#X obj 891 857 s \$0-rhythms;
#X obj 120 111 r \$0-rhythms;
#X obj 109 223 outlet;
#X obj 43 155 rhythms;
#X connect 0 0 236 0;
#X connect 1 0 235 0;
#X connect 1 0 236 1;
#X connect 2 0 236 2;
#X connect 3 0 5 0;
#X connect 4 0 6 0;
#X connect 5 0 9 0;
#X connect 5 1 10 0;
#X connect 5 2 11 0;
#X connect 5 3 12 0;
#X connect 5 4 13 0;
#X connect 5 5 14 0;
#X connect 5 6 15 0;
#X connect 5 7 16 0;
#X connect 5 8 17 0;
#X connect 5 9 18 0;
#X connect 5 10 19 0;
#X connect 5 11 20 0;
#X connect 6 0 21 0;
#X connect 6 1 22 0;
#X connect 6 2 23 0;
#X connect 6 3 24 0;
#X connect 6 4 25 0;
#X connect 6 5 26 0;
#X connect 6 6 27 0;
#X connect 6 7 28 0;
#X connect 6 8 29 0;
#X connect 6 9 30 0;
#X connect 6 10 31 0;
#X connect 6 11 32 0;
#X connect 7 0 8 0;
#X connect 7 1 8 1;
#X connect 8 0 33 0;
#X connect 9 0 8 0;
#X connect 10 0 8 0;
#X connect 11 0 8 0;
#X connect 12 0 8 0;
#X connect 13 0 8 0;
#X connect 14 0 8 0;
#X connect 15 0 8 0;
#X connect 16 0 8 0;
#X connect 17 0 8 0;
#X connect 18 0 8 0;
#X connect 19 0 8 0;
#X connect 20 0 8 0;
#X connect 21 0 7 0;
#X connect 22 0 7 0;
#X connect 23 0 7 0;
#X connect 24 0 7 0;
#X connect 25 0 7 0;
#X connect 26 0 7 0;
#X connect 27 0 7 0;
#X connect 28 0 7 0;
#X connect 29 0 7 0;
#X connect 30 0 7 0;
#X connect 31 0 7 0;
#X connect 32 0 7 0;
#X connect 33 0 56 0;
#X connect 33 1 57 0;
#X connect 33 2 58 0;
#X connect 33 3 59 0;
#X connect 33 4 60 0;
#X connect 33 5 61 0;
#X connect 33 6 62 0;
#X connect 33 7 63 0;
#X connect 33 8 64 0;
#X connect 33 9 65 0;
#X connect 33 10 66 0;
#X connect 33 11 67 0;
#X connect 33 12 34 0;
#X connect 34 0 35 0;
#X connect 35 0 68 0;
#X connect 35 1 69 0;
#X connect 35 2 70 0;
#X connect 35 3 71 0;
#X connect 35 4 72 0;
#X connect 35 5 73 0;
#X connect 35 6 74 0;
#X connect 35 7 91 0;
#X connect 35 8 132 0;
#X connect 35 9 133 0;
#X connect 35 10 174 0;
#X connect 35 11 189 0;
#X connect 35 12 36 0;
#X connect 36 0 37 0;
#X connect 37 0 75 0;
#X connect 37 1 76 0;
#X connect 37 2 77 0;
#X connect 37 3 78 0;
#X connect 37 4 79 0;
#X connect 37 5 80 0;
#X connect 37 6 81 0;
#X connect 37 7 82 0;
#X connect 37 8 134 0;
#X connect 37 9 135 0;
#X connect 37 10 175 0;
#X connect 37 11 190 0;
#X connect 37 12 38 0;
#X connect 38 0 39 0;
#X connect 39 0 83 0;
#X connect 39 1 84 0;
#X connect 39 2 85 0;
#X connect 39 3 86 0;
#X connect 39 4 87 0;
#X connect 39 5 88 0;
#X connect 39 6 89 0;
#X connect 39 7 90 0;
#X connect 39 8 136 0;
#X connect 39 9 137 0;
#X connect 39 10 178 0;
#X connect 39 11 191 0;
#X connect 39 12 40 0;
#X connect 40 0 41 0;
#X connect 41 0 92 0;
#X connect 41 1 93 0;
#X connect 41 2 94 0;
#X connect 41 3 95 0;
#X connect 41 4 96 0;
#X connect 41 5 97 0;
#X connect 41 6 98 0;
#X connect 41 7 99 0;
#X connect 41 8 138 0;
#X connect 41 9 139 0;
#X connect 41 10 176 0;
#X connect 41 11 192 0;
#X connect 41 12 42 0;
#X connect 42 0 43 0;
#X connect 43 0 100 0;
#X connect 43 1 101 0;
#X connect 43 2 102 0;
#X connect 43 3 103 0;
#X connect 43 4 104 0;
#X connect 43 5 105 0;
#X connect 43 6 106 0;
#X connect 43 7 107 0;
#X connect 43 8 179 0;
#X connect 43 9 140 0;
#X connect 43 10 177 0;
#X connect 43 11 193 0;
#X connect 43 12 44 0;
#X connect 44 0 45 0;
#X connect 45 0 108 0;
#X connect 45 1 109 0;
#X connect 45 2 110 0;
#X connect 45 3 111 0;
#X connect 45 4 112 0;
#X connect 45 5 113 0;
#X connect 45 6 114 0;
#X connect 45 7 115 0;
#X connect 45 8 180 0;
#X connect 45 9 141 0;
#X connect 45 10 184 0;
#X connect 45 11 194 0;
#X connect 45 12 46 0;
#X connect 46 0 47 0;
#X connect 47 0 116 0;
#X connect 47 1 117 0;
#X connect 47 2 118 0;
#X connect 47 3 119 0;
#X connect 47 4 120 0;
#X connect 47 5 121 0;
#X connect 47 6 122 0;
#X connect 47 7 123 0;
#X connect 47 8 181 0;
#X connect 47 9 142 0;
#X connect 47 10 185 0;
#X connect 47 11 195 0;
#X connect 47 12 48 0;
#X connect 48 0 49 0;
#X connect 49 0 124 0;
#X connect 49 1 125 0;
#X connect 49 2 126 0;
#X connect 49 3 127 0;
#X connect 49 4 128 0;
#X connect 49 5 129 0;
#X connect 49 6 130 0;
#X connect 49 7 131 0;
#X connect 49 8 182 0;
#X connect 49 9 143 0;
#X connect 49 10 186 0;
#X connect 49 11 196 0;
#X connect 49 12 50 0;
#X connect 50 0 51 0;
#X connect 51 0 144 0;
#X connect 51 1 145 0;
#X connect 51 2 146 0;
#X connect 51 3 147 0;
#X connect 51 4 148 0;
#X connect 51 5 149 0;
#X connect 51 6 150 0;
#X connect 51 7 151 0;
#X connect 51 8 152 0;
#X connect 51 9 183 0;
#X connect 51 10 187 0;
#X connect 51 11 197 0;
#X connect 51 12 52 0;
#X connect 52 0 53 0;
#X connect 53 0 153 0;
#X connect 53 1 154 0;
#X connect 53 2 155 0;
#X connect 53 3 156 0;
#X connect 53 4 157 0;
#X connect 53 5 158 0;
#X connect 53 6 159 0;
#X connect 53 7 160 0;
#X connect 53 8 161 0;
#X connect 53 9 173 0;
#X connect 53 10 188 0;
#X connect 53 11 198 0;
#X connect 53 12 54 0;
#X connect 54 0 55 0;
#X connect 55 0 162 0;
#X connect 55 1 163 0;
#X connect 55 2 164 0;
#X connect 55 3 165 0;
#X connect 55 4 166 0;
#X connect 55 5 167 0;
#X connect 55 6 168 0;
#X connect 55 7 169 0;
#X connect 55 8 170 0;
#X connect 55 9 171 0;
#X connect 55 10 172 0;
#X connect 55 11 199 0;
#X connect 56 0 210 0;
#X connect 57 0 210 0;
#X connect 58 0 210 0;
#X connect 59 0 210 0;
#X connect 60 0 210 0;
#X connect 61 0 210 0;
#X connect 62 0 211 0;
#X connect 63 0 211 0;
#X connect 64 0 211 0;
#X connect 65 0 211 0;
#X connect 66 0 211 0;
#X connect 67 0 211 0;
#X connect 68 0 212 0;
#X connect 69 0 212 0;
#X connect 70 0 212 0;
#X connect 71 0 212 0;
#X connect 72 0 212 0;
#X connect 73 0 212 0;
#X connect 74 0 213 0;
#X connect 75 0 214 0;
#X connect 76 0 214 0;
#X connect 77 0 214 0;
#X connect 78 0 214 0;
#X connect 79 0 214 0;
#X connect 80 0 214 0;
#X connect 81 0 215 0;
#X connect 82 0 215 0;
#X connect 83 0 216 0;
#X connect 84 0 216 0;
#X connect 85 0 216 0;
#X connect 86 0 216 0;
#X connect 87 0 216 0;
#X connect 88 0 216 0;
#X connect 89 0 217 0;
#X connect 90 0 217 0;
#X connect 91 0 213 0;
#X connect 92 0 218 0;
#X connect 93 0 218 0;
#X connect 94 0 218 0;
#X connect 95 0 218 0;
#X connect 96 0 218 0;
#X connect 97 0 218 0;
#X connect 98 0 219 0;
#X connect 99 0 219 0;
#X connect 100 0 220 0;
#X connect 101 0 220 0;
#X connect 102 0 220 0;
#X connect 103 0 220 0;
#X connect 104 0 220 0;
#X connect 105 0 220 0;
#X connect 106 0 221 0;
#X connect 107 0 221 0;
#X connect 108 0 222 0;
#X connect 109 0 222 0;
#X connect 110 0 222 0;
#X connect 111 0 222 0;
#X connect 112 0 222 0;
#X connect 113 0 222 0;
#X connect 114 0 223 0;
#X connect 115 0 223 0;
#X connect 116 0 224 0;
#X connect 117 0 224 0;
#X connect 118 0 224 0;
#X connect 119 0 224 0;
#X connect 120 0 224 0;
#X connect 121 0 224 0;
#X connect 122 0 225 0;
#X connect 123 0 225 0;
#X connect 124 0 226 0;
#X connect 125 0 226 0;
#X connect 126 0 226 0;
#X connect 127 0 226 0;
#X connect 128 0 226 0;
#X connect 129 0 226 0;
#X connect 130 0 227 0;
#X connect 131 0 227 0;
#X connect 132 0 213 0;
#X connect 133 0 213 0;
#X connect 134 0 215 0;
#X connect 135 0 215 0;
#X connect 136 0 217 0;
#X connect 137 0 217 0;
#X connect 138 0 219 0;
#X connect 139 0 219 0;
#X connect 140 0 221 0;
#X connect 141 0 223 0;
#X connect 142 0 225 0;
#X connect 143 0 227 0;
#X connect 144 0 228 0;
#X connect 145 0 228 0;
#X connect 146 0 228 0;
#X connect 147 0 228 0;
#X connect 148 0 228 0;
#X connect 149 0 228 0;
#X connect 150 0 229 0;
#X connect 151 0 229 0;
#X connect 152 0 229 0;
#X connect 153 0 230 0;
#X connect 154 0 230 0;
#X connect 155 0 230 0;
#X connect 156 0 230 0;
#X connect 157 0 230 0;
#X connect 158 0 230 0;
#X connect 159 0 231 0;
#X connect 160 0 231 0;
#X connect 161 0 231 0;
#X connect 162 0 232 0;
#X connect 163 0 232 0;
#X connect 164 0 232 0;
#X connect 165 0 232 0;
#X connect 166 0 232 0;
#X connect 167 0 232 0;
#X connect 168 0 233 0;
#X connect 169 0 233 0;
#X connect 170 0 233 0;
#X connect 171 0 233 0;
#X connect 172 0 233 0;
#X connect 173 0 231 0;
#X connect 174 0 213 0;
#X connect 175 0 215 0;
#X connect 176 0 219 0;
#X connect 177 0 221 0;
#X connect 178 0 217 0;
#X connect 179 0 221 0;
#X connect 180 0 223 0;
#X connect 181 0 225 0;
#X connect 182 0 227 0;
#X connect 183 0 229 0;
#X connect 184 0 223 0;
#X connect 185 0 225 0;
#X connect 186 0 227 0;
#X connect 187 0 229 0;
#X connect 188 0 231 0;
#X connect 189 0 213 0;
#X connect 190 0 215 0;
#X connect 191 0 217 0;
#X connect 192 0 219 0;
#X connect 193 0 221 0;
#X connect 194 0 223 0;
#X connect 195 0 225 0;
#X connect 196 0 227 0;
#X connect 197 0 229 0;
#X connect 198 0 231 0;
#X connect 199 0 233 0;
#X connect 203 0 3 0;
#X connect 204 0 4 0;
#X connect 205 0 0 0;
#X connect 206 0 1 0;
#X connect 234 0 2 0;
#X connect 236 0 200 0;
#X connect 236 0 209 0;
