#N canvas 674 43 894 754 10;
#N canvas 129 14 1064 656 binary 0;
#N canvas 605 24 310 950 digits 0;
#X floatatom 65 93 5 0 0 0 - - -;
#X obj 65 120 / 2;
#X obj 115 120 mod 2;
#X floatatom 176 137 5 0 0 0 - - -;
#X obj 26 158 route 0;
#X floatatom 65 187 5 0 0 0 - - -;
#X obj 65 214 / 2;
#X obj 115 214 mod 2;
#X floatatom 176 231 5 0 0 0 - - -;
#X obj 26 252 route 0;
#X floatatom 65 294 5 0 0 0 - - -;
#X obj 65 321 / 2;
#X obj 115 321 mod 2;
#X floatatom 176 338 5 0 0 0 - - -;
#X obj 26 359 route 0;
#X floatatom 65 395 5 0 0 0 - - -;
#X obj 65 422 / 2;
#X obj 115 422 mod 2;
#X floatatom 176 439 5 0 0 0 - - -;
#X obj 26 460 route 0;
#X floatatom 65 490 5 0 0 0 - - -;
#X obj 115 517 mod 2;
#X floatatom 176 534 5 0 0 0 - - -;
#X obj 65 519 / 2;
#X obj 25 547 route 0;
#X floatatom 64 577 5 0 0 0 - - -;
#X obj 64 604 / 2;
#X obj 114 604 mod 2;
#X floatatom 175 621 5 0 0 0 - - -;
#X obj 25 642 route 0;
#X floatatom 64 684 5 0 0 0 - - -;
#X obj 64 711 / 2;
#X obj 114 711 mod 2;
#X floatatom 175 728 5 0 0 0 - - -;
#X obj 25 749 route 0;
#X floatatom 64 785 5 0 0 0 - - -;
#X obj 64 812 / 2;
#X obj 114 812 mod 2;
#X floatatom 175 829 5 0 0 0 - - -;
#X obj 25 850 route 0;
#X floatatom 64 895 5 0 0 0 - - -;
#X obj 64 922 / 2;
#X obj 114 922 mod 2;
#X floatatom 175 939 5 0 0 0 - - -;
#X obj 25 960 route 0;
#X floatatom 64 996 5 0 0 0 - - -;
#X obj 114 1023 mod 2;
#X floatatom 175 1040 5 0 0 0 - - -;
#X obj 65 53 inlet;
#X floatatom 176 258 5 0 0 0 dig_2 - #0-dig2;
#X floatatom 176 363 5 0 0 0 dig_3 - #0-dig_3;
#X floatatom 176 466 5 0 0 0 dig_4 - #0-dig4;
#X floatatom 176 562 5 0 0 0 dig_5 - #0-dig_5;
#X floatatom 176 167 5 0 0 0 dig_1 - #0-dig1;
#X floatatom 175 643 5 0 0 0 dig_6 - #0-dig6;
#X floatatom 175 750 5 0 0 0 dig_7 - #0-dig_7;
#X floatatom 175 852 5 0 0 0 dig_8 - #0-dig8;
#X floatatom 175 963 5 0 0 0 dig_9 - #0-dig_9;
#X floatatom 175 1065 5 0 0 0 dig_10 - #0-dig_10;
#X obj 64 1027 / 2;
#X obj 25 1065 route 0;
#X floatatom 64 1110 5 0 0 0 - - -;
#X obj 64 1137 / 2;
#X obj 114 1137 mod 2;
#X floatatom 175 1154 5 0 0 0 - - -;
#X obj 25 1175 route 0;
#X floatatom 64 1211 5 0 0 0 - - -;
#X obj 114 1238 mod 2;
#X floatatom 175 1255 5 0 0 0 - - -;
#X floatatom 175 1178 5 0 0 0 dig_11 - #0-dig_11;
#X floatatom 175 1280 5 0 0 0 dig_12 - #0-dig_12;
#X connect 0 0 1 0;
#X connect 0 0 2 0;
#X connect 1 0 4 0;
#X connect 2 0 3 0;
#X connect 3 0 53 0;
#X connect 4 1 5 0;
#X connect 5 0 6 0;
#X connect 5 0 7 0;
#X connect 6 0 9 0;
#X connect 7 0 8 0;
#X connect 8 0 49 0;
#X connect 9 1 10 0;
#X connect 10 0 11 0;
#X connect 10 0 12 0;
#X connect 11 0 14 0;
#X connect 12 0 13 0;
#X connect 13 0 50 0;
#X connect 14 1 15 0;
#X connect 15 0 16 0;
#X connect 15 0 17 0;
#X connect 16 0 19 0;
#X connect 17 0 18 0;
#X connect 18 0 51 0;
#X connect 19 1 20 0;
#X connect 20 0 21 0;
#X connect 20 0 23 0;
#X connect 21 0 22 0;
#X connect 22 0 52 0;
#X connect 23 0 24 0;
#X connect 24 1 25 0;
#X connect 25 0 26 0;
#X connect 25 0 27 0;
#X connect 26 0 29 0;
#X connect 27 0 28 0;
#X connect 28 0 54 0;
#X connect 29 1 30 0;
#X connect 30 0 31 0;
#X connect 30 0 32 0;
#X connect 31 0 34 0;
#X connect 32 0 33 0;
#X connect 33 0 55 0;
#X connect 34 1 35 0;
#X connect 35 0 36 0;
#X connect 35 0 37 0;
#X connect 36 0 39 0;
#X connect 37 0 38 0;
#X connect 38 0 56 0;
#X connect 39 1 40 0;
#X connect 40 0 41 0;
#X connect 40 0 42 0;
#X connect 41 0 44 0;
#X connect 42 0 43 0;
#X connect 43 0 57 0;
#X connect 44 1 45 0;
#X connect 45 0 46 0;
#X connect 45 0 59 0;
#X connect 46 0 47 0;
#X connect 47 0 58 0;
#X connect 48 0 0 0;
#X connect 59 0 60 0;
#X connect 60 1 61 0;
#X connect 61 0 62 0;
#X connect 61 0 63 0;
#X connect 62 0 65 0;
#X connect 63 0 64 0;
#X connect 64 0 69 0;
#X connect 65 1 66 0;
#X connect 66 0 67 0;
#X connect 67 0 68 0;
#X connect 68 0 70 0;
#X restore 60 70 pd digits;
#X floatatom -18 31 5 0 0 0 - - -;
#X obj -9 590 outlet;
#X obj -18 7 inlet;
#X obj -9 551 list split;
#X msg -18 191 1;
#X msg 18 191 2;
#X obj 60 47 f;
#X obj 106 221 spigot;
#X obj 148 204 *;
#X obj 174 187 t b f;
#X obj 106 198 del 1;
#X obj 174 162 <= 7;
#X msg 106 244 3;
#X obj -18 148 select 0 1 2 3;
#X obj -18 223 s digit#out;
#X obj -18 70 s digit#in;
#X obj -18 125 r digit#in;
#X obj 106 267 s digit#out;
#X obj 106 127 r digit#in;
#X obj 231 222 spigot;
#X obj 273 205 *;
#X obj 299 188 t b f;
#X obj 231 199 del 1;
#X obj 231 268 s digit#out;
#X obj 231 128 r digit#in;
#X obj 273 163 > 7;
#X obj 299 163 <= 15;
#X obj 351 223 spigot;
#X obj 393 206 *;
#X obj 425 189 t b f;
#X obj 351 200 del 1;
#X obj 351 269 s digit#out;
#X obj 351 129 r digit#in;
#X obj 393 164 > 15;
#X obj 425 164 <= 31;
#X msg 231 245 4;
#X msg 351 246 5;
#X obj 487 220 spigot;
#X obj 529 203 *;
#X obj 561 186 t b f;
#X obj 487 197 del 1;
#X obj 487 266 s digit#out;
#X obj 487 126 r digit#in;
#X msg 487 243 6;
#X obj 529 161 > 31;
#X obj 561 161 <= 63;
#X obj 628 217 spigot;
#X obj 670 200 *;
#X obj 702 183 t b f;
#X obj 628 194 del 1;
#X obj 628 263 s digit#out;
#X obj 628 123 r digit#in;
#X obj 670 158 > 63;
#X obj 702 158 <= 127;
#X obj -5 408 spigot;
#X obj 37 391 *;
#X obj 77 374 t b f;
#X obj -5 385 del 1;
#X obj -5 454 s digit#out;
#X obj -5 314 r digit#in;
#X obj 37 349 > 127;
#X obj 77 349 <= 255;
#X msg 628 240 7;
#X msg -5 431 8;
#X obj 144 402 spigot;
#X obj 186 385 *;
#X obj 226 368 t b f;
#X obj 144 379 del 1;
#X obj 144 448 s digit#out;
#X obj 144 308 r digit#in;
#X msg 144 425 9;
#X obj 186 343 > 255;
#X obj 226 343 <= 511;
#X obj 48 521 r digit#out;
#X obj 148 162 > 3;
#X obj 101 31 del 2;
#X obj 280 411 spigot;
#X obj 322 394 *;
#X obj 362 377 t b f;
#X obj 280 388 del 1;
#X obj 280 457 s digit#out;
#X obj 280 317 r digit#in;
#X obj 322 352 > 511;
#X obj 362 352 <= 1023;
#X obj 451 411 spigot;
#X obj 493 394 *;
#X obj 533 377 t b f;
#X obj 451 388 del 1;
#X obj 451 457 s digit#out;
#X obj 451 317 r digit#in;
#X obj 533 352 <= 2047;
#X obj 493 352 > 1023;
#X obj 613 410 spigot;
#X obj 613 387 del 1;
#X obj 613 456 s digit#out;
#X obj 613 316 r digit#in;
#X obj 646 351 > 2047;
#X msg 280 434 10;
#X msg 451 434 11;
#X msg 613 433 12;
#N canvas 552 172 446 499 dig 0;
#X floatatom 85 260 5 0 0 0 dig_2 #0-dig2 -;
#X floatatom 100 237 5 0 0 0 dig_3 #0-dig_3 -;
#X floatatom 115 213 5 0 0 0 dig_4 #0-dig4 -;
#X floatatom 130 190 5 0 0 0 dig_5 #0-dig_5 -;
#X floatatom 145 170 5 0 0 0 dig_6 #0-dig6 -;
#X floatatom 160 150 5 0 0 0 dig_7 #0-dig_7 -;
#X floatatom 175 129 5 0 0 0 dig_8 #0-dig8 -;
#X floatatom 70 282 5 0 0 0 dig_1 #0-dig1 -;
#X floatatom 190 109 5 0 0 0 dig_9 #0-dig_9 -;
#X floatatom 205 89 5 0 0 0 dig_10 #0-dig_10 -;
#X obj 70 375 outlet;
#X obj 70 316 pack 0 0 0 0 0 0 0 0 0 0 0 0;
#X floatatom 220 68 5 0 0 0 dig_11 #0-dig_11 -;
#X floatatom 235 48 5 0 0 0 dig_12 #0-dig_12 -;
#X connect 0 0 11 1;
#X connect 1 0 11 2;
#X connect 2 0 11 3;
#X connect 3 0 11 4;
#X connect 4 0 11 5;
#X connect 5 0 11 6;
#X connect 6 0 11 7;
#X connect 7 0 11 0;
#X connect 8 0 11 8;
#X connect 9 0 11 9;
#X connect 11 0 10 0;
#X connect 12 0 11 10;
#X connect 13 0 11 11;
#X restore -9 499 pd dig 12;
#N canvas 251 149 446 499 dig 0;
#X floatatom 220 94 5 0 0 0 dig_2 #0-dig2 -;
#X floatatom 205 114 5 0 0 0 dig_3 #0-dig_3 -;
#X floatatom 190 134 5 0 0 0 dig_4 #0-dig4 -;
#X floatatom 175 154 5 0 0 0 dig_5 #0-dig_5 -;
#X floatatom 160 174 5 0 0 0 dig_6 #0-dig6 -;
#X floatatom 145 194 5 0 0 0 dig_7 #0-dig_7 -;
#X floatatom 130 214 5 0 0 0 dig_8 #0-dig8 -;
#X floatatom 235 74 5 0 0 0 dig_1 #0-dig1 -;
#X floatatom 115 234 5 0 0 0 dig_9 #0-dig_9 -;
#X floatatom 100 254 5 0 0 0 dig_10 #0-dig_10 -;
#X obj 70 375 outlet;
#X obj 70 316 pack 0 0 0 0 0 0 0 0 0 0 0 0;
#X floatatom 85 274 5 0 0 0 dig_11 #0-dig_11 -;
#X floatatom 70 294 5 0 0 0 dig_12 #0-dig_12 -;
#X connect 0 0 11 10;
#X connect 1 0 11 9;
#X connect 2 0 11 8;
#X connect 3 0 11 7;
#X connect 4 0 11 6;
#X connect 5 0 11 5;
#X connect 6 0 11 4;
#X connect 7 0 11 11;
#X connect 8 0 11 3;
#X connect 9 0 11 2;
#X connect 11 0 10 0;
#X connect 12 0 11 1;
#X connect 13 0 11 0;
#X restore 248 539 pd dig backwards 12;
#X connect 1 0 7 1;
#X connect 1 0 16 0;
#X connect 1 0 76 0;
#X connect 3 0 1 0;
#X connect 4 0 2 0;
#X connect 5 0 15 0;
#X connect 6 0 15 0;
#X connect 7 0 0 0;
#X connect 8 0 13 0;
#X connect 9 0 8 1;
#X connect 10 0 9 0;
#X connect 10 1 9 1;
#X connect 11 0 8 0;
#X connect 12 0 10 0;
#X connect 13 0 18 0;
#X connect 14 0 5 0;
#X connect 14 1 5 0;
#X connect 14 2 6 0;
#X connect 14 3 6 0;
#X connect 17 0 14 0;
#X connect 19 0 11 0;
#X connect 19 0 12 0;
#X connect 19 0 75 0;
#X connect 20 0 36 0;
#X connect 21 0 20 1;
#X connect 22 0 21 0;
#X connect 22 1 21 1;
#X connect 23 0 20 0;
#X connect 25 0 23 0;
#X connect 25 0 26 0;
#X connect 25 0 27 0;
#X connect 26 0 21 0;
#X connect 27 0 22 0;
#X connect 28 0 37 0;
#X connect 29 0 28 1;
#X connect 30 0 29 0;
#X connect 30 1 29 1;
#X connect 31 0 28 0;
#X connect 33 0 31 0;
#X connect 33 0 34 0;
#X connect 33 0 35 0;
#X connect 34 0 29 0;
#X connect 35 0 30 0;
#X connect 36 0 24 0;
#X connect 37 0 32 0;
#X connect 38 0 44 0;
#X connect 39 0 38 1;
#X connect 40 0 39 0;
#X connect 40 1 39 1;
#X connect 41 0 38 0;
#X connect 43 0 41 0;
#X connect 43 0 45 0;
#X connect 43 0 46 0;
#X connect 44 0 42 0;
#X connect 45 0 39 0;
#X connect 46 0 40 0;
#X connect 47 0 63 0;
#X connect 48 0 47 1;
#X connect 49 0 48 0;
#X connect 49 1 48 1;
#X connect 50 0 47 0;
#X connect 52 0 50 0;
#X connect 52 0 53 0;
#X connect 52 0 54 0;
#X connect 53 0 48 0;
#X connect 54 0 49 0;
#X connect 55 0 64 0;
#X connect 56 0 55 1;
#X connect 57 0 56 0;
#X connect 57 1 56 1;
#X connect 58 0 55 0;
#X connect 60 0 58 0;
#X connect 60 0 61 0;
#X connect 60 0 62 0;
#X connect 61 0 56 0;
#X connect 62 0 57 0;
#X connect 63 0 51 0;
#X connect 64 0 59 0;
#X connect 65 0 71 0;
#X connect 66 0 65 1;
#X connect 67 0 66 0;
#X connect 67 1 66 1;
#X connect 68 0 65 0;
#X connect 70 0 68 0;
#X connect 70 0 72 0;
#X connect 70 0 73 0;
#X connect 71 0 69 0;
#X connect 72 0 66 0;
#X connect 73 0 67 0;
#X connect 74 0 4 1;
#X connect 75 0 9 0;
#X connect 76 0 7 0;
#X connect 77 0 98 0;
#X connect 78 0 77 1;
#X connect 79 0 78 0;
#X connect 79 1 78 1;
#X connect 80 0 77 0;
#X connect 82 0 80 0;
#X connect 82 0 83 0;
#X connect 82 0 84 0;
#X connect 83 0 78 0;
#X connect 84 0 79 0;
#X connect 85 0 99 0;
#X connect 86 0 85 1;
#X connect 87 0 86 0;
#X connect 87 1 86 1;
#X connect 88 0 85 0;
#X connect 90 0 88 0;
#X connect 90 0 91 0;
#X connect 90 0 92 0;
#X connect 91 0 87 0;
#X connect 92 0 86 0;
#X connect 93 0 100 0;
#X connect 94 0 93 0;
#X connect 96 0 94 0;
#X connect 96 0 97 0;
#X connect 97 0 93 1;
#X connect 98 0 81 0;
#X connect 99 0 89 0;
#X connect 100 0 95 0;
#X connect 101 0 4 0;
#X restore 293 185 pd binary;
#X floatatom 293 155 5 0 0 0 - - -;
#X floatatom 293 305 5 0 0 0 - - -;
#X floatatom 327 305 5 0 0 0 - - -;
#X floatatom 360 305 5 0 0 0 - - -;
#X floatatom 393 305 5 0 0 0 - - -;
#X floatatom 426 305 5 0 0 0 - - -;
#X floatatom 459 305 5 0 0 0 - - -;
#X floatatom 492 305 5 0 0 0 - - -;
#X floatatom 525 305 5 0 0 0 - - -;
#X floatatom 558 305 5 0 0 0 - - -;
#X floatatom 591 305 5 0 0 0 - - -;
#X obj 69 149 tgl 15 0 empty empty empty 17 7 0 10 -262144 -1 -1 1
1;
#X obj 118 231 r digit#out;
#X obj 69 204 f;
#X obj 97 204 + 1;
#X obj 69 248 mod;
#X floatatom 69 280 5 0 0 0 - - -;
#X msg 149 167 0;
#X obj 69 169 metro 1000;
#X obj 69 390 f;
#X obj 83 413 f;
#X obj 97 437 f;
#X obj 111 460 f;
#X obj 126 386 f;
#X obj 140 409 f;
#X obj 154 433 f;
#X obj 168 456 f;
#X obj 183 395 f;
#X obj 197 418 f;
#X floatatom 69 533 5 0 0 0 - - -;
#X floatatom 126 125 5 0 0 0 - - -;
#X obj 92 556 sel 1;
#X msg 92 602 0;
#X floatatom 69 636 5 0 0 0 - - -;
#X obj 69 658 sel 1;
#X obj 69 682 bng 15 250 50 0 empty empty empty 17 7 0 10 -262144 -1
-1;
#X obj 92 580 del 1;
#X obj 69 58 inlet;
#X obj 126 58 inlet;
#X obj 293 58 inlet;
#X obj 69 703 outlet;
#X obj 293 221 unpack 0 0 0 0 0 0 0 0 0 0 0 0;
#X floatatom 624 305 5 0 0 0 - - -;
#X floatatom 657 305 5 0 0 0 - - -;
#X obj 69 304 sel 0 1 2 3 4 5 6 7 8 9 10 11;
#X obj 211 442 f;
#X obj 225 465 f;
#X connect 0 0 42 0;
#X connect 1 0 0 0;
#X connect 2 0 20 1;
#X connect 3 0 21 1;
#X connect 4 0 22 1;
#X connect 5 0 23 1;
#X connect 6 0 24 1;
#X connect 7 0 25 1;
#X connect 8 0 26 1;
#X connect 9 0 27 1;
#X connect 10 0 28 1;
#X connect 11 0 29 1;
#X connect 12 0 18 0;
#X connect 12 0 19 0;
#X connect 13 0 16 1;
#X connect 14 0 15 0;
#X connect 14 0 16 0;
#X connect 15 0 14 1;
#X connect 16 0 17 0;
#X connect 17 0 45 0;
#X connect 18 0 14 0;
#X connect 19 0 14 0;
#X connect 20 0 30 0;
#X connect 21 0 30 0;
#X connect 22 0 30 0;
#X connect 23 0 30 0;
#X connect 24 0 30 0;
#X connect 25 0 30 0;
#X connect 26 0 30 0;
#X connect 27 0 30 0;
#X connect 28 0 30 0;
#X connect 29 0 30 0;
#X connect 30 0 32 0;
#X connect 30 0 34 0;
#X connect 31 0 19 1;
#X connect 32 0 37 0;
#X connect 33 0 34 0;
#X connect 34 0 35 0;
#X connect 35 0 36 0;
#X connect 36 0 41 0;
#X connect 37 0 33 0;
#X connect 38 0 12 0;
#X connect 39 0 31 0;
#X connect 40 0 1 0;
#X connect 42 0 2 0;
#X connect 42 1 3 0;
#X connect 42 2 4 0;
#X connect 42 3 5 0;
#X connect 42 4 6 0;
#X connect 42 5 7 0;
#X connect 42 6 8 0;
#X connect 42 7 9 0;
#X connect 42 8 10 0;
#X connect 42 9 11 0;
#X connect 42 10 43 0;
#X connect 42 11 44 0;
#X connect 43 0 46 1;
#X connect 44 0 47 1;
#X connect 45 0 20 0;
#X connect 45 1 21 0;
#X connect 45 2 22 0;
#X connect 45 3 23 0;
#X connect 45 4 24 0;
#X connect 45 5 25 0;
#X connect 45 6 26 0;
#X connect 45 7 27 0;
#X connect 45 8 28 0;
#X connect 45 9 29 0;
#X connect 45 10 46 0;
#X connect 45 11 47 0;
#X connect 46 0 30 0;
#X connect 47 0 30 0;
